<svg width="64" height="64" viewBox="0 0 64 64" xmlns="http://www.w3.org/2000/svg">
  <defs>
    <!-- Gradient paisible et humain -->
    <linearGradient id="humanIconGradient" x1="0%" y1="0%" x2="100%" y2="100%">
      <stop offset="0%" style="stop-color:#4A90E2;stop-opacity:1" />
      <stop offset="50%" style="stop-color:#7ED321;stop-opacity:1" />
      <stop offset="100%" style="stop-color:#F5A623;stop-opacity:1" />
    </linearGradient>
    
    <!-- Ombre douce -->
    <filter id="iconShadow">
      <feGaussianBlur in="SourceAlpha" stdDeviation="1"/>
      <feOffset dx="1" dy="1" result="offset"/>
      <feComponentTransfer>
        <feFuncA type="linear" slope="0.3"/>
      </feComponentTransfer>
      <feMerge> 
        <feMergeNode/>
        <feMergeNode in="SourceGraphic"/>
      </feMerge>
    </filter>
  </defs>
  
  <!-- Fond circulaire paisible -->
  <circle cx="32" cy="32" r="30" fill="url(#humanIconGradient)" opacity="0.9" filter="url(#iconShadow)"/>
  
  <!-- Icône humaine stylisée au centre -->
  <g transform="translate(32, 32)">
    <!-- Corps humain simplifié -->
    <path d="M-6,-12 C-6,-12 -6,-6 -6,-4 C-6,-2 -5,0 -3,0 C-1,0 0,-2 0,-4 C0,-6 1,-6 1,-12 C1,-14 0,-16 -2,-16 C-4,-16 -6,-14 -6,-12 Z" 
          fill="white" opacity="0.95"/>
    
    <!-- Bras ouverts (paix) -->
    <path d="M-10,-8 C-12,-6 -12,-4 -10,-2 C-8,0 -7,2 -5,3 C-3,4 -2,4 0,3 C2,2 3,0 4,-2 C6,-4 6,-6 4,-8 C2,-10 0,-10 -2,-8 Z" 
          fill="white" opacity="0.9"/>
    
    <!-- Cœur au centre -->
    <path d="M-1.5,-6 C-2.5,-7 -3.5,-7 -4.5,-6 C-5.5,-5 -5.5,-3 -4.5,-2 C-3.5,-1 -2.5,-1 -1.5,0 C-0.5,-1 0.5,-1 1.5,-2 C2.5,-3 2.5,-5 1.5,-6 C0.5,-7 -0.5,-7 -1.5,-6 Z" 
          fill="#E74C3C" opacity="0.8"/>
    
    <!-- Lignes de paix -->
    <circle cx="0" cy="0" r="18" fill="none" stroke="white" stroke-width="1" opacity="0.3"/>
    <circle cx="0" cy="0" r="22" fill="none" stroke="white" stroke-width="0.5" opacity="0.2"/>
  </g>
</svg>
