<svg width="64" height="64" viewBox="0 0 64 64" fill="none" xmlns="http://www.w3.org/2000/svg">
  <defs>
    <!-- Gradient harmonieux -->
    <linearGradient id="coexistGradient" x1="0%" y1="0%" x2="100%" y2="100%">
      <stop offset="0%" style="stop-color:#3b82f6;stop-opacity:1" />
      <stop offset="33%" style="stop-color:#8b5cf6;stop-opacity:1" />
      <stop offset="66%" style="stop-color:#ec4899;stop-opacity:1" />
      <stop offset="100%" style="stop-color:#f59e0b;stop-opacity:1" />
    </linearGradient>
    
    <!-- Effet de lueur subtile -->
    <filter id="subtleGlow" x="-50%" y="-50%" width="200%" height="200%">
      <feGaussianBlur stdDeviation="1" result="coloredBlur"/>
      <feMerge> 
        <feMergeNode in="coloredBlur"/>
        <feMergeNode in="SourceGraphic"/>
      </feMerge>
    </filter>
  </defs>
  
  <!-- Cercle de base -->
  <circle cx="32" cy="32" r="30" fill="url(#coexistGradient)" opacity="0.1"/>
  
  <!-- Symbole principal - Cercle divisé en sections -->
  <g transform="translate(32, 32)">
    <!-- Cercle de base -->
    <circle cx="0" cy="0" r="20" fill="none" stroke="url(#coexistGradient)" stroke-width="1.5" opacity="0.4"/>
    
    <!-- Sections colorées -->
    <path d="M 0 -20 A 20 20 0 0 1 20 0 L 0 0 Z" fill="#3b82f6" opacity="0.9" filter="url(#subtleGlow)"/>
    <path d="M 20 0 A 20 20 0 0 1 0 20 L 0 0 Z" fill="#8b5cf6" opacity="0.9" filter="url(#subtleGlow)"/>
    <path d="M 0 20 A 20 20 0 0 1 -20 0 L 0 0 Z" fill="#ec4899" opacity="0.9" filter="url(#subtleGlow)"/>
    <path d="M -20 0 A 20 20 0 0 1 0 -20 L 0 0 Z" fill="#f59e0b" opacity="0.9" filter="url(#subtleGlow)"/>
    
    <!-- Centre unificateur -->
    <circle cx="0" cy="0" r="6" fill="white" opacity="0.95"/>
    <circle cx="0" cy="0" r="4" fill="url(#coexistGradient)" opacity="0.9"/>
    
    <!-- Symbole de paix -->
    <g transform="translate(0, 0)">
      <circle cx="0" cy="0" r="2" fill="white" opacity="0.9"/>
      <path d="M -1.2 -0.4 L 1.2 -0.4 L 1.2 0.4 L -1.2 0.4 Z" fill="url(#coexistGradient)" opacity="0.8"/>
      <path d="M -0.4 -1.2 L 0.4 -1.2 L 0.4 1.2 L -0.4 1.2 Z" fill="url(#coexistGradient)" opacity="0.8"/>
    </g>
  </g>
  
  <!-- Éléments décoratifs -->
  <g opacity="0.4">
    <circle cx="12" cy="12" r="1.5" fill="url(#coexistGradient)"/>
    <circle cx="52" cy="12" r="1.5" fill="url(#coexistGradient)"/>
    <circle cx="12" cy="52" r="1.5" fill="url(#coexistGradient)"/>
    <circle cx="52" cy="52" r="1.5" fill="url(#coexistGradient)"/>
  </g>
</svg>



