<svg width="64" height="64" viewBox="0 0 64 64" fill="none" xmlns="http://www.w3.org/2000/svg">
  <defs>
    <!-- Gradient principal pour l'harmonie -->
    <linearGradient id="harmonyGradient" x1="0%" y1="0%" x2="100%" y2="100%">
      <stop offset="0%" style="stop-color:#667eea;stop-opacity:1" />
      <stop offset="25%" style="stop-color:#764ba2;stop-opacity:1" />
      <stop offset="50%" style="stop-color:#f093fb;stop-opacity:1" />
      <stop offset="75%" style="stop-color:#f5576c;stop-opacity:1" />
      <stop offset="100%" style="stop-color:#4facfe;stop-opacity:1" />
    </linearGradient>
    
    <!-- Gradients pour les cercles -->
    <radialGradient id="circleGradient1" cx="50%" cy="50%" r="50%">
      <stop offset="0%" style="stop-color:#667eea;stop-opacity:0.9" />
      <stop offset="100%" style="stop-color:#764ba2;stop-opacity:0.7" />
    </radialGradient>
    
    <radialGradient id="circleGradient2" cx="50%" cy="50%" r="50%">
      <stop offset="0%" style="stop-color:#f093fb;stop-opacity:0.9" />
      <stop offset="100%" style="stop-color:#f5576c;stop-opacity:0.7" />
    </radialGradient>
    
    <radialGradient id="circleGradient3" cx="50%" cy="50%" r="50%">
      <stop offset="0%" style="stop-color:#4facfe;stop-opacity:0.9" />
      <stop offset="100%" style="stop-color:#00f2fe;stop-opacity:0.7" />
    </radialGradient>
    
    <!-- Effet de lueur -->
    <filter id="glow" x="-50%" y="-50%" width="200%" height="200%">
      <feGaussianBlur stdDeviation="1" result="coloredBlur"/>
      <feMerge> 
        <feMergeNode in="coloredBlur"/>
        <feMergeNode in="SourceGraphic"/>
      </feMerge>
    </filter>
  </defs>
  
  <!-- Arrière-plan circulaire avec gradient -->
  <circle cx="32" cy="32" r="30" fill="url(#harmonyGradient)" opacity="0.1"/>
  
  <!-- Cercles interconnectés symbolisant la coexistence -->
  <g filter="url(#glow)">
    <!-- Premier cercle - Bleu/Violet -->
    <circle cx="24" cy="32" r="8" fill="url(#circleGradient1)" opacity="0.9"/>
    
    <!-- Deuxième cercle - Rose/Magenta -->
    <circle cx="40" cy="32" r="8" fill="url(#circleGradient2)" opacity="0.9"/>
    
    <!-- Troisième cercle - Bleu ciel -->
    <circle cx="32" cy="20" r="8" fill="url(#circleGradient3)" opacity="0.9"/>
    
    <!-- Quatrième cercle - Intersection harmonieuse -->
    <circle cx="32" cy="44" r="7" fill="url(#harmonyGradient)" opacity="0.8"/>
  </g>
  
  <!-- Lignes de connexion représentant l'union -->
  <g stroke="url(#harmonyGradient)" stroke-width="1.5" opacity="0.7">
    <line x1="24" y1="32" x2="40" y2="32"/>
    <line x1="24" y1="32" x2="32" y2="20"/>
    <line x1="40" y1="32" x2="32" y2="20"/>
    <line x1="24" y1="32" x2="32" y2="44"/>
    <line x1="40" y1="32" x2="32" y2="44"/>
    <line x1="32" y1="20" x2="32" y2="44"/>
  </g>
  
  <!-- Symbole de paix au centre -->
  <g transform="translate(32, 32)">
    <circle cx="0" cy="0" r="3" fill="white" opacity="0.95"/>
    <path d="M -1.5 -1 L 1.5 -1 L 1.5 1 L -1.5 1 Z" fill="url(#harmonyGradient)" opacity="0.9"/>
    <path d="M -1 -1.5 L 1 -1.5 L 1 1.5 L -1 1.5 Z" fill="url(#harmonyGradient)" opacity="0.9"/>
  </g>
  
  <!-- Éléments décoratifs subtils -->
  <g opacity="0.5">
    <circle cx="8" cy="8" r="1" fill="url(#harmonyGradient)"/>
    <circle cx="56" cy="8" r="1" fill="url(#harmonyGradient)"/>
    <circle cx="8" cy="56" r="1" fill="url(#harmonyGradient)"/>
    <circle cx="56" cy="56" r="1" fill="url(#harmonyGradient)"/>
  </g>
</svg>



