
<svg width="96" height="96" viewBox="0 0 100 100" xmlns="http://www.w3.org/2000/svg">
  <defs>
    <linearGradient id="coexistGradient" x1="0%" y1="0%" x2="100%" y2="100%">
      <stop offset="0%" style="stop-color:#3b82f6;stop-opacity:1" />
      <stop offset="25%" style="stop-color:#8b5cf6;stop-opacity:1" />
      <stop offset="50%" style="stop-color:#06b6d4;stop-opacity:1" />
      <stop offset="75%" style="stop-color:#10b981;stop-opacity:1" />
      <stop offset="100%" style="stop-color:#f59e0b;stop-opacity:1" />
    </linearGradient>
  </defs>
  
  <!-- Cercle de coexistence -->
  <circle cx="50" cy="50" r="45" fill="url(#coexistGradient)" stroke="#ffffff" stroke-width="2"/>
  
  <!-- Sections colorées -->
  <path d="M 50 50 L 95 50 A 45 45 0 0 1 67.5 85.5 Z" fill="#3b82f6" opacity="0.8"/>
  <path d="M 50 50 L 67.5 85.5 A 45 45 0 0 1 32.5 85.5 Z" fill="#8b5cf6" opacity="0.8"/>
  <path d="M 50 50 L 32.5 85.5 A 45 45 0 0 1 14.5 67.5 Z" fill="#06b6d4" opacity="0.8"/>
  <path d="M 50 50 L 14.5 67.5 A 45 45 0 0 1 14.5 32.5 Z" fill="#10b981" opacity="0.8"/>
  <path d="M 50 50 L 14.5 32.5 A 45 45 0 0 1 32.5 14.5 Z" fill="#f59e0b" opacity="0.8"/>
  <path d="M 50 50 L 32.5 14.5 A 45 45 0 0 1 67.5 14.5 Z" fill="#ef4444" opacity="0.8"/>
  <path d="M 50 50 L 67.5 14.5 A 45 45 0 0 1 85.5 32.5 Z" fill="#ec4899" opacity="0.8"/>
  <path d="M 50 50 L 85.5 32.5 A 45 45 0 0 1 95 50 Z" fill="#6366f1" opacity="0.8"/>
  
  <!-- Cercle central -->
  <circle cx="50" cy="50" r="15" fill="#ffffff" opacity="0.9"/>
  
  <!-- Texte COEXIST -->
  <text x="50" y="55" font-family="Arial, sans-serif" font-size="8" font-weight="bold" text-anchor="middle" fill="#1f2937">COEXIST</text>
</svg>